<svg width="180" height="180" viewBox="0 0 180 180" fill="none" xmlns="http://www.w3.org/2000/svg">
  <defs>
    <filter id="glow" x="-50%" y="-50%" width="200%" height="200%">
      <feGaussianBlur stdDeviation="4" result="coloredBlur"/>
      <feMerge>
        <feMergeNode in="coloredBlur"/>
        <feMergeNode in="SourceGraphic"/>
      </feMerge>
    </filter>
    <linearGradient id="wGradient" x1="0%" y1="0%" x2="0%" y2="100%">
      <stop offset="0%" style="stop-color:#F0F0F0;stop-opacity:1" />
      <stop offset="50%" style="stop-color:#E0E0E0;stop-opacity:1" />
      <stop offset="100%" style="stop-color:#C8C8C8;stop-opacity:1" />
    </linearGradient>
  </defs>
  
  <!-- 어두운 배경 -->
  <rect width="180" height="180" fill="#0D1117" rx="37"/>
  
  <!-- 발광하는 w 글자 (중앙 정렬) -->
  <g filter="url(#glow)" transform="translate(90, 90)">
    <!-- w 글자 경로 (네온 튜브 스타일) -->
    <path 
      d="M -45 -25 
         L -35 -25 
         L -35 -5 
         L -20 -5 
         L -20 -25 
         L -5 -25 
         L -5 -5 
         L 10 -5 
         L 10 -25 
         L 20 -25 
         L 20 -5 
         L 35 -5 
         L 35 -25 
         L 45 -25 
         L 45 25 
         L 35 25 
         L 35 5 
         L 20 5 
         L 20 25 
         L 10 25 
         L 10 5 
         L -5 5 
         L -5 25 
         L -20 25 
         L -20 5 
         L -35 5 
         L -35 25 
         L -45 25 
         Z"
      fill="url(#wGradient)"
      stroke="#E8E8E8"
      stroke-width="2.5"
      stroke-linejoin="round"
      opacity="0.9"
    />
  </g>
</svg>
